<svg xmlns="http://www.w3.org/2000/svg" viewBox="0 0 361 361"><defs><style>.cls-1{fill:#fff;}</style></defs><g id="レイヤー_2" data-name="レイヤー 2"><g id="Layer_1" data-name="Layer 1"><path id="Instagram-Icon-9iuhn3" class="cls-1" d="M184,361h-3.6c-28.3.08-54.41-.65-79.84-2.18a106.63,106.63,0,0,1-61.54-23.28A98.61,98.61,0,0,1,5.86,281.88,238.3,238.3,0,0,1,.39,225.21C.23,212,0,196.41,0,180.52S.23,149,.38,135.81A238.53,238.53,0,0,1,5.85,79.1,98.64,98.64,0,0,1,39.06,25.47,106.62,106.62,0,0,1,100.59,2.19C126,.65,152.18-.07,180.51,0c28.3-.08,54.45.64,79.88,2.18a106.84,106.84,0,0,1,61.54,23.28,98.89,98.89,0,0,1,33.21,53.61,240.17,240.17,0,0,1,5.44,56.71c.19,13.18.38,28.76.42,44.65v.08c0,15.89-.23,31.47-.42,44.7a238.23,238.23,0,0,1-5.44,56.67,98.83,98.83,0,0,1-33.21,53.61,106.79,106.79,0,0,1-61.53,23.28C236,360.27,211,361,184,361m-3.6-28.22c27.83.07,53.41-.65,78.23-2.15a77.6,77.6,0,0,0,45.42-17,71.11,71.11,0,0,0,23.7-38.71,216.31,216.31,0,0,0,4.57-50.12c.2-13.06.38-28.56.42-44.3s-.22-31.21-.42-44.3a216.42,216.42,0,0,0-4.55-50.13A71.14,71.14,0,0,0,304.1,47.36a77.84,77.84,0,0,0-45.41-17c-24.82-1.49-50.4-2.21-78.16-2.14s-53.38.65-78.23,2.14a77.9,77.9,0,0,0-45.44,17,71.54,71.54,0,0,0-23.7,38.71,216.29,216.29,0,0,0-4.55,50.12c-.2,13.09-.38,28.6-.43,44.35s.23,31.21.43,44.26a216.42,216.42,0,0,0,4.55,50.13,71.58,71.58,0,0,0,23.7,38.71,77.89,77.89,0,0,0,45.42,17c24.85,1.49,50.4,2.21,78.16,2.14m-.66-64.09a88.15,88.15,0,1,1,88.11-88.2v.05a88.27,88.27,0,0,1-88.11,88.15m0-148.08a59.89,59.89,0,1,0,59.89,59.89,59.89,59.89,0,0,0-59.89-59.89m98-56.44a21.16,21.16,0,1,0,21.14,21.17v0a21.08,21.08,0,0,0-21-21.14h-.11"/></g></g></svg>