<svg xmlns="http://www.w3.org/2000/svg" viewBox="0 0 427 359"><defs><style>.cls-1{fill:#fff;}</style></defs><g id="レイヤー_2" data-name="レイヤー 2"><g id="Layer_1" data-name="Layer 1"><path class="cls-1" d="M135.37,359A251,251,0,0,1,9.52,325.1a18.82,18.82,0,0,1,9.34-35.18H28.94a148.86,148.86,0,0,0,59.62-12.36,99.86,99.86,0,0,1-50.1-58.27,16.24,16.24,0,0,1,2.11-14.47A99.3,99.3,0,0,1,8.78,130.89a16.5,16.5,0,0,1,8.34-14.2,18.89,18.89,0,0,1,2-1A98.3,98.3,0,0,1,9.43,72.9,99.52,99.52,0,0,1,22.8,23.15a16.74,16.74,0,0,1,13.1-8.24,16.5,16.5,0,0,1,14.19,6.14A215.3,215.3,0,0,0,188,99,106.73,106.73,0,0,1,191,74,96.12,96.12,0,0,1,255.81,4.65C290-5.89,326.52,1.81,352.35,24.53a161,161,0,0,0,38.38-16.4,16.63,16.63,0,0,1,24.36,19.33,98.69,98.69,0,0,1-4.21,10.9,16.77,16.77,0,0,1,12.18,6,16.52,16.52,0,0,1,1.1,20,185.49,185.49,0,0,1-36.91,40.58l-1.1,3.39a254.7,254.7,0,0,1-16.4,88.31,256.69,256.69,0,0,1-48.08,80.53,238,238,0,0,1-78.86,59.09C210.11,351.4,174,359,135.37,359ZM40.11,313.74c61.37,28.5,135.28,27,192.53.46a213.25,213.25,0,0,0,70.89-53.13,232.82,232.82,0,0,0,43.6-73A230.14,230.14,0,0,0,362,108.26c0-9.44,3.66-17,10-22.17a159.75,159.75,0,0,0,16.31-15.21c-1.56.46-3.21.83-4.77,1.19L339.8,82.42l32.61-31a77.26,77.26,0,0,0,10.35-12.18,174.7,174.7,0,0,1-25.28,8.52,24.13,24.13,0,0,1-21.07-5.13c-19.6-17.32-47.26-23.09-73.36-14.94A72.25,72.25,0,0,0,214.5,79.58a82,82,0,0,0-1.83,27.76,15.28,15.28,0,0,1-15.2,17C135.18,118.61,79.68,90.67,38.92,45.23A75.21,75.21,0,0,0,33.61,73a73.91,73.91,0,0,0,22.25,53.23l30.87,30.32-42-10a111,111,0,0,1-10.9-3.3,74.89,74.89,0,0,0,42.77,56.9l48.37,22.07-53.22,1c-1.83,0-3.85,0-5.68-.09a75.55,75.55,0,0,0,54.5,39.76l30.22,5-25.37,17A172.47,172.47,0,0,1,40.11,313.74ZM31.32,36.34Z"/></g></g></svg>