<svg xmlns="http://www.w3.org/2000/svg" viewBox="0 0 400 300" width="406" height="306" class="illustration styles_illustrationTablet__1DWOa"><g id="_476_qr_code_flatline" data-name="#476_qr_code_flatline"><path d="M333.59,218.5s3.75-88.94,1.87-96.65S316.32,78.1,310.69,71.72,285.91,60.45,278,58.58,245,60.27,246.84,67.21s23.84,11.68,23.84,11.68-.26,68.59,0,82.49,14.76,67.73,14.76,67.73Z" fill="#fff"></path><path d="M285.44,229.61a.5.5,0,0,1-.48-.37c-.6-2.2-14.52-54-14.78-67.85-.25-13.19,0-76.42,0-82.1-3.09-.7-22-5.24-23.82-12a3.55,3.55,0,0,1,1.11-3.53c3.11-3.22,11.29-4.82,14.66-5.36,6.27-1,12.7-1.15,16-.36,17.55,4.18,28.93,8.78,32.92,13.29,5.49,6.23,22.93,42.3,24.89,50.35,1.87,7.7-1.71,93.16-1.86,96.79a.5.5,0,0,1-.4.47L285.55,229.6Zm-13.14-171c-8.32,0-20.54,2.25-24.11,5.94a2.58,2.58,0,0,0-.86,2.58c1.79,6.57,23.24,11.27,23.46,11.32a.49.49,0,0,1,.39.49c0,.68-.26,68.74,0,82.48.25,13,13.21,61.86,14.62,67.15l47.3-10.42c.27-6.38,3.65-88.83,1.88-96.13-2-8-19.23-43.76-24.67-49.92-3.85-4.37-15.05-8.86-32.4-13A25.62,25.62,0,0,0,272.3,58.56ZM333.59,218.5h0Z" fill="#231f20"></path><path d="M66.41,218.5s-3.75-88.94-1.87-96.65S83.68,78.1,89.31,71.72,114.09,60.45,122,58.58s33.08,1.69,31.19,8.63-23.84,11.68-23.84,11.68.26,68.59,0,82.49-14.76,67.73-14.76,67.73Z" fill="#fff"></path><path d="M114.56,229.61h-.11L66.31,219a.5.5,0,0,1-.4-.47c-.15-3.63-3.73-89.09-1.86-96.79,2-8,19.4-44.12,24.89-50.35,4-4.51,15.37-9.11,32.92-13.29,3.31-.79,9.74-.64,16,.36,3.37.54,11.55,2.14,14.66,5.36a3.55,3.55,0,0,1,1.11,3.53c-1.84,6.71-20.73,11.25-23.82,12,0,5.68.25,68.91,0,82.1C129.56,175.2,115.64,227,115,229.24A.5.5,0,0,1,114.56,229.61ZM66.9,218.1l47.3,10.42c1.41-5.29,14.37-54.14,14.62-67.15.26-13.74,0-81.8,0-82.48a.49.49,0,0,1,.39-.49c.22-.05,21.67-4.75,23.46-11.32a2.58,2.58,0,0,0-.86-2.58c-4.52-4.68-23-7-29.72-5.44-17.35,4.13-28.55,8.62-32.4,13C84.25,78.21,67,114,65,122,63.25,129.27,66.63,211.72,66.9,218.1Z" fill="#231f20"></path><rect x="149.75" y="62.56" width="1.65" height="14.16" transform="translate(80.93 220.21) rotate(-90)" fill="#231f20"></rect><path d="M157.65,71H143.5a.5.5,0,0,1-.5-.5V68.82a.5.5,0,0,1,.5-.5h14.15a.5.5,0,0,1,.5.5v1.64A.5.5,0,0,1,157.65,71ZM144,70h13.16v-.66H144Z" fill="#231f20"></path><rect x="152.51" y="17.87" width="95.02" height="198.57" rx="10.84" transform="translate(82.87 317.17) rotate(-90)" fill="#231f20"></rect><path d="M288.47,165.16H111.57a11.35,11.35,0,0,1-11.33-11.34V80.48a11.35,11.35,0,0,1,11.33-11.34h176.9A11.35,11.35,0,0,1,299.8,80.48v73.34A11.35,11.35,0,0,1,288.47,165.16Zm-176.9-95a10.35,10.35,0,0,0-10.34,10.34v73.34a10.35,10.35,0,0,0,10.34,10.34h176.9a10.35,10.35,0,0,0,10.34-10.34V80.48a10.35,10.35,0,0,0-10.34-10.34Z" fill="#231f20"></path><rect x="158.09" y="42.4" width="85.22" height="149.51" transform="translate(83.55 317.85) rotate(-90)" fill="#fff"></rect><path d="M287.43,125.2a8,8,0,1,1,8.05-8A8.06,8.06,0,0,1,287.43,125.2Zm0-15.1a7.05,7.05,0,1,0,7.05,7.05A7.05,7.05,0,0,0,287.43,110.1Z" fill="#939598"></path><rect x="105.49" y="115.94" width="16" height="2.42" rx="1.21" transform="translate(-3.66 230.64) rotate(-90)" fill="#939598"></rect><circle cx="114.06" cy="132.87" r="1.78" fill="#939598"></circle><circle cx="107.99" cy="117.15" r="1.33" fill="#939598"></circle><g id="yQXdNz"><path d="M207.57,107.46h2.84v-5.68h-8.59c0-1-1.48-1.9-1.48-2.87h7.26V93.06l0,0c.3,0,.6,0,.91,0h10.58v8.63h2.86v14.42h2.95l0,0v2.77l0,0h-2.93v2.93l0,0H219v2.87H210.5v-2.84h2.77V119h-2.84v-2.75h-5.72l0,0-.1-2.92,0,0h5.78v-3H207.6v-2.89ZM219,118.92V113.3h-2.8v5.62Zm0-11.38h-2.79v2.79H219Z" fill="#68e1fd"></path><path d="M190.29,147.63h-20v-20h20Zm-2.87-2.87V130.51H173.18v14.25Z" fill="#68e1fd"></path><path d="M210.5,147.63v-20h20v20Zm17.11-17.1H213.38v14.24h14.23Z" fill="#68e1fd"></path><path d="M170.32,87.46h20v20h-20Zm17.13,2.87H173.19v14.25h14.26Z" fill="#68e1fd"></path><path d="M204.65,139.07h2.87v-5.75h-5.7v-5.67H199v2.76h-2.89v-5.62h-3l0,0c0,3.08,0,6.17,0,9.25v2.14h11.45v2.94Z" fill="#68e1fd"></path><path d="M181.74,118.9h2.88v2.9h2.83V119h2.84v-2.83h-5.64v-2.87h-2.9v-2.86h-2.86v2.78H176v-2.77h-5.71v2.81h2.89v3l0,0h8.58v2.77Z" fill="#68e1fd"></path><path d="M227.58,107.48c0-1.55,0-3.1.07-4.64,0-1.29,0-2.58,0-4h2.83V93.18h-2.77v2.74h-2.77a2.47,2.47,0,0,0-.12.59q0,5.25,0,10.52c0,.12,0,.24.05.44h2.73Z" fill="#68e1fd"></path><path d="M204.73,116.23l-2.87-.16v5.74H199v2.86h8.49v-2.81h-2.81v-5.65Z" fill="#68e1fd"></path><path d="M222,121.81v2.86h5.67v-2.81h2.82v-5.67h-2.87l0,0v2.77h-2.77l0,0v2.93h-2.93Z" fill="#68e1fd"></path><path d="M173.2,116.19h-2.87v8.49h5.59v-2.87l0,0h-2.77v-5.67Z" fill="#68e1fd"></path><path d="M207.65,90.41a2.36,2.36,0,0,0-.51-.12h-7.78a3,3,0,0,0-.33,0V93.1h2.75V96l0,0h3V93.06h2.89l0,0,.06-2.69Z" fill="#68e1fd"></path><path d="M204.61,142.08c0-1,0-2,0-3l0,0H199v8.52h2.76v-5.69l2.83.15Z" fill="#68e1fd"></path><path d="M196.17,104.76c.08,0,.16-.13.23-.13l5.38.06,0,0c0-1.07.06-2.13.06-3.2,0-1.85,0-3.7-.06-5.55l0,0H199v5.77h-2.79v3Z" fill="#68e1fd"></path><path d="M175.92,121.81h2.94v2.86h2.88V118.9l0,0H176v2.9Z" fill="#68e1fd"></path><path d="M227.59,107.46c0,1.91,0,3.83,0,5.75l0,0h2.94v-5.72h-2.88Z" fill="#68e1fd"></path><path d="M216.21,87.45v2.79h5.68V87.45Z" fill="#68e1fd"></path><path d="M196.18,116.24l-3-.18v5.71h3v-5.53Z" fill="#68e1fd"></path><path d="M193.26,87.47v5.61H196V87.47Z" fill="#68e1fd"></path><path d="M204.61,113.33v-2.92h-5.68c.06,1,.11,2,.17,2.92h5.53Z" fill="#68e1fd"></path><path d="M193.16,124.79c0-1,0-2,0-3h0l-4.64.07h-1v2.92h5.65Z" fill="#68e1fd"></path><path d="M196.18,104.78l-2.91-.22v5.77h2.9v-5.55Z" fill="#68e1fd"></path><path d="M193.26,139.14v5.62h2.79v-5.62Z" fill="#68e1fd"></path><path d="M204.63,142.07c0,1.52.05,3,.07,4.56v1h2.83v-5.73l-2.92.17Z" fill="#68e1fd"></path><path d="M201.78,104.69v2.74h5.82l0,0v-2.74h-5.81Z" fill="#68e1fd"></path><path d="M196.06,98.83V96.05h-2.79v2.78Z" fill="#68e1fd"></path><path d="M207.64,90.4l2.76-.18V87.46h-2.75V90.4Z" fill="#68e1fd"></path><path d="M187.56,113.22h2.71v-2.81h-2.71Z" fill="#68e1fd"></path><path d="M227.59,116.19l-.06-3,0,0h-2.67v3l0,0h2.77Z" fill="#68e1fd"></path><path d="M224.86,87.46v2.78h2.73V87.46Z" fill="#68e1fd"></path><path d="M204.74,127.66v2.74h2.78v-2.74Z" fill="#68e1fd"></path><path d="M184.6,141.9v-8.53h-8.54v8.53Z" fill="#68e1fd"></path><path d="M216.21,141.89h8.53v-8.54h-8.53Z" fill="#68e1fd"></path><path d="M184.58,93.19h-8.52v8.54h8.52Z" fill="#68e1fd"></path></g><path d="M162.61,96.12a1,1,0,0,1-1-1V81.48a1,1,0,0,1,1-1h14.55a1,1,0,0,1,0,2H163.61V95.12A1,1,0,0,1,162.61,96.12Z" fill="#68e1fd"></path><path d="M177.16,154.61H162.61a1,1,0,0,1-1-1V140a1,1,0,0,1,2,0v12.64h13.55a1,1,0,0,1,0,2Z" fill="#68e1fd"></path><path d="M238.2,96.12a1,1,0,0,1-1-1V82.48H223.66a1,1,0,0,1,0-2H238.2a1,1,0,0,1,1,1V95.12A1,1,0,0,1,238.2,96.12Z" fill="#68e1fd"></path><path d="M238.2,154.61H223.66a1,1,0,1,1,0-2H237.2V140a1,1,0,1,1,2,0v13.64A1,1,0,0,1,238.2,154.61Z" fill="#68e1fd"></path><path d="M117.26,221.88s12.6-30.61,14.85-47.3c3-22,5.5-77.63.38-89-4.93-10.92-18.78.45-19.27,10s-1.29,25.78-8.31,40.17a73.71,73.71,0,0,0-5.84,17" fill="#fff"></path><path d="M117.26,222.38a.41.41,0,0,1-.19,0,.5.5,0,0,1-.28-.65c.13-.31,12.6-30.74,14.83-47.18,3.14-23.3,5.28-77.9.41-88.7-1.45-3.21-3.81-4.6-6.82-4-5.39,1-11.19,8-11.49,13.9v.13c-.49,9.65-1.32,25.82-8.35,40.24a73.21,73.21,0,0,0-5.79,16.86.51.51,0,0,1-.58.4.5.5,0,0,1-.41-.58,75,75,0,0,1,5.89-17.12c6.94-14.24,7.76-30.27,8.24-39.85v-.13c.33-6.37,6.42-13.72,12.31-14.83,3.46-.66,6.27,1,7.91,4.61,5.12,11.35,2.79,66.15-.33,89.25-2.24,16.56-14.77,47.11-14.89,47.42A.51.51,0,0,1,117.26,222.38Z" fill="#231f20"></path><path d="M134.82,241.92,130.11,199,61.8,201.62s-1.78,21.77-2.58,40.3Z" fill="#231f20"></path><path d="M134.82,242.42H59.22a.48.48,0,0,1-.36-.16.52.52,0,0,1-.14-.36c.79-18.33,2.57-40.1,2.59-40.32a.5.5,0,0,1,.47-.46l68.31-2.63a.5.5,0,0,1,.52.45l4.71,42.92a.5.5,0,0,1-.13.39A.48.48,0,0,1,134.82,242.42Zm-75.08-1h74.53l-4.6-41.91L62.26,202.1C62,205.25,60.47,224.67,59.74,241.42Z" fill="#231f20"></path><path d="M282.74,221.88s-12.6-30.61-14.85-47.3c-3-22-5.5-77.63-.38-89,4.93-10.92,18.78.45,19.27,10s1.29,25.78,8.31,40.17a73.71,73.71,0,0,1,5.84,17" fill="#fff"></path><path d="M282.74,222.38a.51.51,0,0,1-.46-.31c-.12-.31-12.65-30.86-14.89-47.42-3.12-23.1-5.45-77.9-.33-89.25,1.64-3.63,4.44-5.27,7.91-4.61,5.89,1.11,12,8.46,12.31,14.83v.13c.48,9.58,1.3,25.61,8.24,39.85a75,75,0,0,1,5.89,17.12.5.5,0,0,1-.41.58.51.51,0,0,1-.58-.4A73.21,73.21,0,0,0,294.64,136c-7-14.42-7.86-30.59-8.35-40.24v-.13c-.3-5.87-6.1-12.88-11.49-13.9-3-.57-5.37.83-6.82,4-4.87,10.8-2.73,65.4.41,88.7,2.23,16.44,14.7,46.87,14.83,47.18a.5.5,0,0,1-.28.65A.41.41,0,0,1,282.74,222.38Z" fill="#231f20"></path><path d="M340.78,241.92c-.8-18.53-2.58-40.3-2.58-40.3L269.89,199l-4.71,42.93Z" fill="#231f20"></path><path d="M340.78,242.42h-75.6a.48.48,0,0,1-.37-.17.5.5,0,0,1-.13-.39l4.71-42.92a.5.5,0,0,1,.52-.45l68.31,2.63a.5.5,0,0,1,.47.46c0,.22,1.8,22,2.59,40.32a.52.52,0,0,1-.14.36A.48.48,0,0,1,340.78,242.42Zm-75-1h74.53c-.73-16.75-2.27-36.17-2.52-39.32l-67.41-2.59Z" fill="#231f20"></path></g></svg>